

<svg width="30" height="30" viewBox="0 0 30 30" fill="none" xmlns="http://www.w3.org/2000/svg">
<path d="M29.1147 5H22.4334C22.1302 5 21.8392 5.14135 21.6732 5.39086C21.4384 5.74394 21.4942 6.19845 21.7863 6.48579L23.1714 7.8481L18.9122 12.037L14.4059 7.60503C14.0604 7.26506 13.5 7.26518 13.1544 7.60503L3.33301 17.2646V25L13.7801 14.725L18.2864 19.1571C18.6158 19.4943 19.2085 19.4942 19.5379 19.1571L27.1039 11.7158L28.489 13.078C28.7814 13.3658 29.2445 13.4203 29.6032 13.1886C29.8564 13.0251 29.9997 12.7389 29.9997 12.441V5.87038C29.9997 5.3897 29.6035 5 29.1147 5Z" fill="#5E81F4"/>
<path d="M29.1211 28.2422H1.75781V0.878906C1.75781 0.393516 1.3643 0 0.878906 0C0.393516 0 0 0.393516 0 0.878906V29.1211C0 29.6065 0.393516 30 0.878906 30H29.1211C29.6065 30 30 29.6065 30 29.1211C30 28.6357 29.6065 28.2422 29.1211 28.2422Z" fill="#5E81F4"/>
</svg>
