<svg width="25" height="24" viewBox="0 0 25 24" fill="none" xmlns="http://www.w3.org/2000/svg">
<path d="M19.7026 7.12803H15.8259V5.44945C15.8259 4.6502 15.2207 4 14.4769 4H10.5189C9.77508 4 9.16995 4.6502 9.16995 5.44945V7.12803H5.29324C4.30568 7.12803 3.50221 7.99139 3.50221 9.05257C3.50221 10.0165 3.41034 10.8822 4.09013 11.8557C4.47474 12.4065 5.00328 12.7994 5.61859 12.9919L11.5936 14.8612C12.1851 15.0462 12.8105 15.0463 13.4021 14.8612L19.3772 12.9919C19.9925 12.7993 20.521 12.4065 20.9056 11.8557C21.5885 10.8778 21.4936 10.0032 21.4936 9.05257C21.4936 7.99139 20.6902 7.12803 19.7026 7.12803V7.12803ZM10.3125 5.44945C10.3125 5.32718 10.4051 5.22773 10.5189 5.22773H14.4769C14.5907 5.22773 14.6833 5.32721 14.6833 5.44945V7.12803H10.3125V5.44945Z" fill="#A53CFE"/>
<path d="M19.7002 14.0443C13.2523 15.8501 13.3358 15.8866 12.498 15.8866C11.6663 15.8866 11.8636 15.8837 5.29591 14.0443C4.60343 13.8503 3.99016 13.4928 3.49805 13V18.2764C3.49805 19.2268 4.30187 20 5.28994 20H19.7062C20.6942 20 21.498 19.2268 21.498 18.2764V13C21.0059 13.4928 20.3926 13.8503 19.7002 14.0443V14.0443Z" fill="#A53CFE"/>
</svg>
