<svg width="21" height="30" viewBox="0 0 21 30" fill="none" xmlns="http://www.w3.org/2000/svg">
<path d="M16.7062 0.128321C16.8931 0.234699 17.0377 0.400162 17.1164 0.597677C17.1951 0.795193 17.2033 1.01309 17.1396 1.21576L13.7014 12.1876H20.0451C20.2315 12.1876 20.4139 12.2411 20.5697 12.3417C20.7255 12.4422 20.8479 12.5854 20.9218 12.7535C20.9957 12.9216 21.0179 13.1072 20.9856 13.2875C20.9532 13.4679 20.8679 13.635 20.74 13.7682L5.46782 29.7048C5.32005 29.8591 5.12341 29.9597 4.90995 29.9902C4.6965 30.0207 4.47881 29.9793 4.29238 29.8728C4.10594 29.7662 3.96175 29.6008 3.88331 29.4035C3.80487 29.2061 3.7968 28.9885 3.86042 28.7861L7.29857 17.8123H0.954892C0.768466 17.8124 0.586099 17.7588 0.430304 17.6583C0.274508 17.5577 0.152104 17.4146 0.0782022 17.2465C0.00430023 17.0784 -0.0178645 16.8927 0.014444 16.7124C0.0467524 16.5321 0.13212 16.365 0.260008 16.2318L15.5322 0.295186C15.6798 0.141069 15.8761 0.0405171 16.0893 0.00988123C16.3024 -0.0207546 16.5199 0.0203269 16.7062 0.126446V0.128321Z" fill="#5E81F4"/>
</svg>
