<svg width="14" height="14" viewBox="0 0 14 14" fill="none" xmlns="http://www.w3.org/2000/svg">
<path d="M3.66634 3.33332V1.33332C3.66634 1.15651 3.73658 0.986943 3.8616 0.861919C3.98663 0.736894 4.1562 0.666656 4.33301 0.666656H9.66634C9.84315 0.666656 10.0127 0.736894 10.1377 0.861919C10.2628 0.986943 10.333 1.15651 10.333 1.33332V3.33332H12.9997C13.1765 3.33332 13.3461 3.40356 13.4711 3.52859C13.5961 3.65361 13.6663 3.82318 13.6663 3.99999V13.3333C13.6663 13.5101 13.5961 13.6797 13.4711 13.8047C13.3461 13.9298 13.1765 14 12.9997 14H0.999674C0.822863 14 0.653294 13.9298 0.52827 13.8047C0.403246 13.6797 0.333008 13.5101 0.333008 13.3333V3.99999C0.333008 3.82318 0.403246 3.65361 0.52827 3.52859C0.653294 3.40356 0.822863 3.33332 0.999674 3.33332H3.66634ZM1.66634 10.6667V12.6667H12.333V10.6667H1.66634ZM1.66634 9.33332H12.333V4.66666H1.66634V9.33332ZM4.99967 1.99999V3.33332H8.99967V1.99999H4.99967ZM6.33301 7.33332H7.66634V8.66666H6.33301V7.33332Z" fill="white"/>
</svg>
