<svg width="16" height="16" viewBox="0 0 16 16" fill="none" xmlns="http://www.w3.org/2000/svg">
<path d="M4.66634 3.33332V1.33332C4.66634 1.15651 4.73658 0.986943 4.8616 0.861919C4.98663 0.736894 5.1562 0.666656 5.33301 0.666656H10.6663C10.8432 0.666656 11.0127 0.736894 11.1377 0.861919C11.2628 0.986943 11.333 1.15651 11.333 1.33332V3.33332H13.9997C14.1765 3.33332 14.3461 3.40356 14.4711 3.52859C14.5961 3.65361 14.6663 3.82318 14.6663 3.99999V13.3333C14.6663 13.5101 14.5961 13.6797 14.4711 13.8047C14.3461 13.9298 14.1765 14 13.9997 14H1.99967C1.82286 14 1.65329 13.9298 1.52827 13.8047C1.40325 13.6797 1.33301 13.5101 1.33301 13.3333V3.99999C1.33301 3.82318 1.40325 3.65361 1.52827 3.52859C1.65329 3.40356 1.82286 3.33332 1.99967 3.33332H4.66634ZM2.66634 10.6667V12.6667H13.333V10.6667H2.66634ZM2.66634 9.33332H13.333V4.66666H2.66634V9.33332ZM5.99967 1.99999V3.33332H9.99967V1.99999H5.99967ZM7.33301 7.33332H8.66634V8.66666H7.33301V7.33332Z" fill="#A53CFE"/>
</svg>
