<svg width="19" height="18" viewBox="0 0 19 18" fill="none" xmlns="http://www.w3.org/2000/svg">
<path d="M1.99707 10H7.99707C8.26229 10 8.51664 9.89464 8.70418 9.70711C8.89171 9.51957 8.99707 9.26522 8.99707 9V1C8.99707 0.734784 8.89171 0.48043 8.70418 0.292893C8.51664 0.105357 8.26229 0 7.99707 0H1.99707C1.73185 0 1.4775 0.105357 1.28996 0.292893C1.10243 0.48043 0.99707 0.734784 0.99707 1V9C0.99707 9.26522 1.10243 9.51957 1.28996 9.70711C1.4775 9.89464 1.73185 10 1.99707 10ZM0.99707 17C0.99707 17.2652 1.10243 17.5196 1.28996 17.7071C1.4775 17.8946 1.73185 18 1.99707 18H7.99707C8.26229 18 8.51664 17.8946 8.70418 17.7071C8.89171 17.5196 8.99707 17.2652 8.99707 17V13C8.99707 12.7348 8.89171 12.4804 8.70418 12.2929C8.51664 12.1054 8.26229 12 7.99707 12H1.99707C1.73185 12 1.4775 12.1054 1.28996 12.2929C1.10243 12.4804 0.99707 12.7348 0.99707 13V17ZM10.9971 17C10.9971 17.2652 11.1024 17.5196 11.29 17.7071C11.4775 17.8946 11.7319 18 11.9971 18H17.9971C18.2623 18 18.5166 17.8946 18.7042 17.7071C18.8917 17.5196 18.9971 17.2652 18.9971 17V10C18.9971 9.73478 18.8917 9.48043 18.7042 9.29289C18.5166 9.10536 18.2623 9 17.9971 9H11.9971C11.7319 9 11.4775 9.10536 11.29 9.29289C11.1024 9.48043 10.9971 9.73478 10.9971 10V17ZM11.9971 7H17.9971C18.2623 7 18.5166 6.89464 18.7042 6.70711C18.8917 6.51957 18.9971 6.26522 18.9971 6V1C18.9971 0.734784 18.8917 0.48043 18.7042 0.292893C18.5166 0.105357 18.2623 0 17.9971 0H11.9971C11.7319 0 11.4775 0.105357 11.29 0.292893C11.1024 0.48043 10.9971 0.734784 10.9971 1V6C10.9971 6.26522 11.1024 6.51957 11.29 6.70711C11.4775 6.89464 11.7319 7 11.9971 7Z" fill="#A53CFE"/>
</svg>
